<?xml version="1.0" encoding="utf-8"?>
<!-- Generator: Adobe Illustrator 25.3.1, SVG Export Plug-In . SVG Version: 6.00 Build 0)  -->
<svg version="1.1" id="Camada_1" xmlns="http://www.w3.org/2000/svg" xmlns:xlink="http://www.w3.org/1999/xlink" x="0px" y="0px"
	 viewBox="0 0 841.89 415.12" style="enable-background:new 0 0 841.89 415.12;" xml:space="preserve">
<style type="text/css">
	.st0{fill:#B7C941;}
	.st1{fill:#1D342F;}
	.st2{fill:#FFFFFF;}
	.st3{fill:#DDB521;}
	.st4{fill:#7E943D;}
	.st5{fill:#EBDC6D;}
</style>
<g>
	<g>
		<path class="st0" d="M-1279.16,597.17l10.43,32.2h-3.86l-2.99-9.37h-12.95l-2.99,9.37h-3.77l10.43-32.2H-1279.16z
			 M-1287.47,616.74h10.84l-3.44-10.84c-0.23-0.92-1.75-5.6-1.88-6.2h-0.18c-0.09,0.55-1.61,5.24-1.84,6.11L-1287.47,616.74z"/>
		<path class="st0" d="M-1261.48,600.43h-8.59v-3.26h20.81v3.26h-8.54v28.93h-3.67V600.43z"/>
		<path class="st0" d="M-1240.72,597.17v28.94h13.83v3.26h-17.5v-32.2H-1240.72z"/>
		<path class="st0" d="M-1209.67,597.17l10.43,32.2h-3.86l-2.99-9.37h-12.95l-2.99,9.37h-3.77l10.43-32.2H-1209.67z
			 M-1217.98,616.74h10.84l-3.44-10.84c-0.23-0.92-1.75-5.6-1.88-6.2h-0.18c-0.09,0.55-1.61,5.24-1.84,6.11L-1217.98,616.74z"/>
		<path class="st0" d="M-1180.37,621.14c0-7.3-15.34-5.65-15.34-15.8c0-4.87,4.18-8.63,9.97-8.63c3.63,0,6.48,1.19,8.31,2.71
			l-2.25,2.85c-1.61-1.29-3.58-2.21-6.29-2.21c-3.77,0-6.02,2.11-6.02,5.05c0,7.44,15.34,5.88,15.34,15.8
			c0,4.87-3.86,8.91-10.75,8.91c-4.87,0-8.22-1.75-10.06-3.4l2.16-2.94c1.79,1.47,4.36,3.03,8.22,3.03
			C-1182.71,626.52-1180.37,624.13-1180.37,621.14z"/>
		<path class="st0" d="M-1156.85,597.17h8.45c9.69,0,14.05,5.01,14.05,15.8c0,10.47-4.23,16.4-14.1,16.4h-8.41V597.17z
			 M-1153.18,626.1h4.69c7.07,0,10.38-3.49,10.38-12.72c0-9.6-3.77-12.95-10.61-12.95h-4.46V626.1z"/>
		<path class="st0" d="M-1115.98,597.17l10.43,32.2h-3.86l-2.99-9.37h-12.95l-2.99,9.37h-3.77l10.43-32.2H-1115.98z
			 M-1124.29,616.74h10.84l-3.44-10.84c-0.23-0.92-1.75-5.6-1.88-6.2h-0.18c-0.09,0.55-1.61,5.24-1.84,6.11L-1124.29,616.74z"/>
		<path class="st0" d="M-1086.68,621.14c0-7.3-15.34-5.65-15.34-15.8c0-4.87,4.18-8.63,9.97-8.63c3.63,0,6.48,1.19,8.31,2.71
			l-2.25,2.85c-1.61-1.29-3.58-2.21-6.29-2.21c-3.77,0-6.02,2.11-6.02,5.05c0,7.44,15.34,5.88,15.34,15.8
			c0,4.87-3.86,8.91-10.75,8.91c-4.87,0-8.22-1.75-10.06-3.4l2.16-2.94c1.79,1.47,4.36,3.03,8.22,3.03
			C-1089.02,626.52-1086.68,624.13-1086.68,621.14z"/>
	</g>
	<g>
		<path class="st1" d="M-1275.5,697.84c-2.93,0-5.32-0.27-7.71-0.8v17.73h-13.3V647.5h9.84l2.84,4.25h0.35
			c1.86-2.22,5.67-5.14,11.97-5.14c10.99,0,18.53,8.24,18.53,23.84C-1252.99,688.89-1263.45,697.84-1275.5,697.84z M-1277.1,687.03
			c6.47,0,10.46-3.72,10.46-15.42c0-9.93-4.17-14.18-9.4-14.18c-3.01,0-5.76,1.42-7.36,3.81v24.29
			C-1281.44,686.67-1278.43,687.03-1277.1,687.03z"/>
		<path class="st1" d="M-1209.38,663.19v20.03c0,2.84,1.06,4.08,3.46,4.08h1.42v9.22c-2.13,1.33-4.43,1.68-6.65,1.68
			c-4.79,0-7.53-2.3-9.04-5.41h-0.36c-1.86,2.48-5.58,5.58-12.76,5.58c-9.75,0-14.8-6.65-14.8-13.83
			c0-11.52,10.37-16.84,26.15-16.04v-3.9c0-5.58-3.1-7.27-7.18-7.27c-4.79,0-7.36,2.75-8.6,5.67l-9.48-7
			c1.95-2.75,6.91-9.4,17.99-9.4C-1216.47,646.61-1209.38,651.04-1209.38,663.19z M-1221.97,677.54
			c-8.78-0.62-13.12,1.42-13.12,5.76c0,2.84,1.95,4.88,5.41,4.88c3.28,0,6.2-1.51,7.71-3.55V677.54z"/>
		<path class="st1" d="M-1200.61,662.12c0-8.16,7-15.51,18.61-15.51c9.04,0,14.8,3.19,18.08,7l-8.6,8.42
			c-1.77-2.04-5.23-4.7-9.84-4.7c-3.01,0-4.96,1.6-4.96,3.9c0,7.53,23.58,4.88,23.58,21.63c0,6.65-5.23,15.6-19.77,15.6
			c-10.99,0-17.64-4.61-20.39-7.53l7.98-9.22c2.22,2.57,7.09,6.21,13.12,6.21c4.17,0,5.76-1.95,5.76-4.25
			C-1177.03,676.39-1200.61,678.79-1200.61,662.12z"/>
		<path class="st1" d="M-1155.41,681.53v-23.84h-6.38v-8.33l6.47-2.66l4.61-11.79h8.51v12.59h12.5v10.19h-12.5v24.2
			c0,3.46,1.95,5.23,5.23,5.23c2.13,0,4.88-0.71,6.82-2.22l3.46,10.02c-1.68,1.24-5.58,3.1-13.92,3.1
			C-1149.2,698.02-1155.41,693.68-1155.41,681.53z"/>
		<path class="st1" d="M-1086.63,663.19v20.03c0,2.84,1.06,4.08,3.46,4.08h1.42v9.22c-2.13,1.33-4.43,1.68-6.65,1.68
			c-4.79,0-7.53-2.3-9.04-5.41h-0.36c-1.86,2.48-5.58,5.58-12.76,5.58c-9.75,0-14.8-6.65-14.8-13.83
			c0-11.52,10.37-16.84,26.15-16.04v-3.9c0-5.58-3.1-7.27-7.18-7.27c-4.79,0-7.36,2.75-8.6,5.67l-9.48-7
			c1.95-2.75,6.91-9.4,17.99-9.4C-1093.72,646.61-1086.63,651.04-1086.63,663.19z M-1099.21,677.54
			c-8.78-0.62-13.12,1.42-13.12,5.76c0,2.84,1.95,4.88,5.41,4.88c3.28,0,6.2-1.51,7.71-3.55V677.54z"/>
		<path class="st1" d="M-1035.57,695.36c0,13.65-9.57,20.39-22.96,20.39c-12.32,0-17.28-3.46-20.12-6.83l7.53-9.84
			c2.48,3.46,7.36,5.85,12.59,5.85c6.91,0,9.84-2.57,9.84-9.66v-2.57h-0.35c-1.86,1.68-5.32,2.84-9.84,2.84
			c-10.37,0-19.68-5.14-19.68-23.13c0-14.09,7.98-25.53,24.38-25.53c8.77,0,14.18,1.06,18.61,3.01V695.36z M-1054.28,657.42
			c-7,0-10.99,4.88-10.99,14.45c0,10.28,3.55,12.85,9.48,12.85c2.92,0,5.32-0.89,7-2.57v-23.84
			C-1050.64,657.69-1052.15,657.42-1054.28,657.42z"/>
		<path class="st1" d="M-985.76,692.97c-3.9,3.19-8.78,5.58-18.35,5.58c-15.78,0-23.84-8.86-23.84-26.15
			c0-16.22,9.04-25.88,23.49-25.88c12.76,0,20.12,8.07,20.12,20.3c0,2.57-0.09,5.05-0.62,8.95h-29.87
			c0.18,7.89,3.72,12.23,12.23,12.23c5.41,0,9.13-2.57,10.99-4.52L-985.76,692.97z M-1014.57,666.91h17.64v-1.33
			c0-5.85-2.48-8.95-7.89-8.95C-1010.85,656.63-1014.39,661.06-1014.57,666.91z"/>
		<path class="st1" d="M-934.18,697.58h-13.38v-31.82c0-5.14-2.39-8.15-6.91-8.15c-3.9,0-7.09,2.3-8.6,5.94v34.04h-13.38V647.5H-966
			l2.66,4.7h0.35c3.01-3.63,8.24-5.94,13.47-5.94c9.75,0,15.33,5.41,15.33,16.66V697.58z"/>
		<path class="st1" d="M-926.02,662.12c0-8.16,7-15.51,18.61-15.51c9.04,0,14.8,3.19,18.08,7l-8.6,8.42
			c-1.77-2.04-5.23-4.7-9.84-4.7c-3.01,0-4.96,1.6-4.96,3.9c0,7.53,23.58,4.88,23.58,21.63c0,6.65-5.23,15.6-19.77,15.6
			c-10.99,0-17.64-4.61-20.39-7.53l7.98-9.22c2.22,2.57,7.09,6.21,13.12,6.21c4.17,0,5.76-1.95,5.76-4.25
			C-902.45,676.39-926.02,678.79-926.02,662.12z"/>
	</g>
</g>
<g>
	<path class="st0" d="M-1418.59,152.1l10.43,32.2h-3.86l-2.99-9.37h-12.95l-2.99,9.37h-3.77l10.43-32.2H-1418.59z M-1426.9,171.67
		h10.84l-3.44-10.84c-0.23-0.92-1.75-5.6-1.88-6.2h-0.18c-0.09,0.55-1.61,5.24-1.84,6.11L-1426.9,171.67z"/>
	<path class="st0" d="M-1400.91,155.36h-8.59v-3.26h20.81v3.26h-8.54v28.94h-3.67V155.36z"/>
	<path class="st0" d="M-1380.15,152.1v28.94h13.82v3.26h-17.5v-32.2H-1380.15z"/>
	<path class="st0" d="M-1349.1,152.1l10.43,32.2h-3.86l-2.99-9.37h-12.95l-2.99,9.37h-3.77l10.43-32.2H-1349.1z M-1357.41,171.67
		h10.84l-3.44-10.84c-0.23-0.92-1.75-5.6-1.88-6.2h-0.18c-0.09,0.55-1.61,5.24-1.84,6.11L-1357.41,171.67z"/>
	<path class="st0" d="M-1319.8,176.08c0-7.3-15.34-5.65-15.34-15.8c0-4.87,4.18-8.63,9.97-8.63c3.63,0,6.48,1.19,8.31,2.71
		l-2.25,2.85c-1.61-1.29-3.58-2.2-6.29-2.2c-3.77,0-6.02,2.11-6.02,5.05c0,7.44,15.34,5.88,15.34,15.8c0,4.87-3.86,8.91-10.75,8.91
		c-4.87,0-8.22-1.75-10.06-3.4l2.16-2.94c1.79,1.47,4.36,3.03,8.22,3.03C-1322.14,181.45-1319.8,179.06-1319.8,176.08z"/>
	<path class="st0" d="M-1296.28,152.1h8.45c9.69,0,14.05,5.01,14.05,15.8c0,10.47-4.23,16.4-14.1,16.4h-8.41V152.1z
		 M-1292.61,181.04h4.69c7.07,0,10.38-3.49,10.38-12.72c0-9.6-3.77-12.95-10.61-12.95h-4.46V181.04z"/>
	<path class="st0" d="M-1255.41,152.1l10.43,32.2h-3.86l-2.99-9.37h-12.95l-2.99,9.37h-3.77l10.43-32.2H-1255.41z M-1263.72,171.67
		h10.84l-3.44-10.84c-0.23-0.92-1.75-5.6-1.88-6.2h-0.18c-0.09,0.55-1.61,5.24-1.84,6.11L-1263.72,171.67z"/>
	<path class="st0" d="M-1226.1,176.08c0-7.3-15.34-5.65-15.34-15.8c0-4.87,4.18-8.63,9.97-8.63c3.63,0,6.48,1.19,8.31,2.71
		l-2.25,2.85c-1.61-1.29-3.58-2.2-6.29-2.2c-3.77,0-6.02,2.11-6.02,5.05c0,7.44,15.34,5.88,15.34,15.8c0,4.87-3.86,8.91-10.75,8.91
		c-4.87,0-8.22-1.75-10.06-3.4l2.16-2.94c1.79,1.47,4.36,3.03,8.22,3.03C-1228.45,181.45-1226.1,179.06-1226.1,176.08z"/>
</g>
<g>
	<path class="st1" d="M-1414.93,252.78c-2.93,0-5.32-0.27-7.71-0.8v17.73h-13.3v-67.28h9.84l2.84,4.25h0.35
		c1.86-2.22,5.67-5.14,11.97-5.14c10.99,0,18.53,8.24,18.53,23.84C-1392.42,243.82-1402.88,252.78-1414.93,252.78z M-1416.53,241.96
		c6.47,0,10.46-3.72,10.46-15.42c0-9.93-4.17-14.18-9.4-14.18c-3.01,0-5.76,1.42-7.36,3.81v24.29
		C-1420.87,241.61-1417.86,241.96-1416.53,241.96z"/>
	<path class="st1" d="M-1348.81,218.12v20.03c0,2.84,1.06,4.08,3.46,4.08h1.42v9.22c-2.13,1.33-4.43,1.68-6.65,1.68
		c-4.79,0-7.53-2.3-9.04-5.41h-0.35c-1.86,2.48-5.58,5.58-12.76,5.58c-9.75,0-14.8-6.65-14.8-13.83c0-11.52,10.37-16.84,26.15-16.04
		v-3.9c0-5.58-3.1-7.27-7.18-7.27c-4.79,0-7.36,2.75-8.6,5.67l-9.48-7c1.95-2.75,6.91-9.4,17.99-9.4
		C-1355.9,201.54-1348.81,205.98-1348.81,218.12z M-1361.4,232.48c-8.78-0.62-13.12,1.42-13.12,5.76c0,2.84,1.95,4.88,5.41,4.88
		c3.28,0,6.2-1.51,7.71-3.55V232.48z"/>
	<path class="st1" d="M-1340.04,217.06c0-8.16,7-15.51,18.61-15.51c9.04,0,14.8,3.19,18.08,7l-8.6,8.42
		c-1.77-2.04-5.23-4.7-9.84-4.7c-3.01,0-4.96,1.6-4.96,3.9c0,7.53,23.58,4.88,23.58,21.63c0,6.65-5.23,15.6-19.77,15.6
		c-10.99,0-17.64-4.61-20.39-7.53l7.98-9.22c2.22,2.57,7.09,6.21,13.12,6.21c4.17,0,5.76-1.95,5.76-4.25
		C-1316.46,231.33-1340.04,233.72-1340.04,217.06z"/>
	<path class="st1" d="M-1294.83,236.47v-23.84h-6.38v-8.33l6.47-2.66l4.61-11.79h8.51v12.59h12.5v10.19h-12.5v24.2
		c0,3.46,1.95,5.23,5.23,5.23c2.13,0,4.88-0.71,6.83-2.22l3.46,10.02c-1.68,1.24-5.58,3.1-13.92,3.1
		C-1288.63,252.95-1294.83,248.61-1294.83,236.47z"/>
	<path class="st1" d="M-1226.05,218.12v20.03c0,2.84,1.06,4.08,3.46,4.08h1.42v9.22c-2.13,1.33-4.43,1.68-6.65,1.68
		c-4.79,0-7.53-2.3-9.04-5.41h-0.35c-1.86,2.48-5.58,5.58-12.76,5.58c-9.75,0-14.8-6.65-14.8-13.83c0-11.52,10.37-16.84,26.15-16.04
		v-3.9c0-5.58-3.1-7.27-7.18-7.27c-4.79,0-7.36,2.75-8.6,5.67l-9.48-7c1.95-2.75,6.91-9.4,17.99-9.4
		C-1233.14,201.54-1226.05,205.98-1226.05,218.12z M-1238.64,232.48c-8.78-0.62-13.12,1.42-13.12,5.76c0,2.84,1.95,4.88,5.41,4.88
		c3.28,0,6.2-1.51,7.71-3.55V232.48z"/>
	<path class="st1" d="M-1175,250.3c0,13.65-9.57,20.39-22.96,20.39c-12.32,0-17.28-3.46-20.12-6.83l7.53-9.84
		c2.48,3.46,7.36,5.85,12.59,5.85c6.91,0,9.84-2.57,9.84-9.66v-2.57h-0.35c-1.86,1.68-5.32,2.84-9.84,2.84
		c-10.37,0-19.68-5.14-19.68-23.13c0-14.09,7.98-25.53,24.38-25.53c8.77,0,14.18,1.06,18.61,3.01V250.3z M-1193.7,212.36
		c-7,0-10.99,4.88-10.99,14.45c0,10.28,3.55,12.85,9.48,12.85c2.92,0,5.32-0.89,7-2.57v-23.84
		C-1190.07,212.62-1191.57,212.36-1193.7,212.36z"/>
	<path class="st1" d="M-1125.19,247.9c-3.9,3.19-8.78,5.58-18.35,5.58c-15.78,0-23.84-8.86-23.84-26.15
		c0-16.22,9.04-25.88,23.49-25.88c12.76,0,20.12,8.07,20.12,20.3c0,2.57-0.09,5.05-0.62,8.95h-29.87
		c0.18,7.89,3.72,12.23,12.23,12.23c5.41,0,9.13-2.57,10.99-4.52L-1125.19,247.9z M-1153.99,221.84h17.64v-1.33
		c0-5.85-2.48-8.95-7.89-8.95C-1150.27,211.56-1153.82,215.99-1153.99,221.84z"/>
	<path class="st1" d="M-1073.6,252.51h-13.38v-31.82c0-5.14-2.39-8.15-6.91-8.15c-3.9,0-7.09,2.3-8.6,5.94v34.04h-13.38v-50.08
		h10.46l2.66,4.7h0.35c3.01-3.63,8.24-5.94,13.47-5.94c9.75,0,15.33,5.41,15.33,16.66V252.51z"/>
	<path class="st1" d="M-1065.45,217.06c0-8.16,7-15.51,18.61-15.51c9.04,0,14.8,3.19,18.08,7l-8.6,8.42
		c-1.77-2.04-5.23-4.7-9.84-4.7c-3.01,0-4.96,1.6-4.96,3.9c0,7.53,23.58,4.88,23.58,21.63c0,6.65-5.23,15.6-19.77,15.6
		c-10.99,0-17.64-4.61-20.39-7.53l7.98-9.22c2.22,2.57,7.09,6.21,13.12,6.21c4.17,0,5.76-1.95,5.76-4.25
		C-1041.87,231.33-1065.45,233.72-1065.45,217.06z"/>
</g>
<g>
	<path class="st2" d="M-1478.41,115.96l-99.47-57.33c-10.35-5.95-22.22-5.95-32.56,0l-99.52,57.33
		c-10.35,5.99-16.3,16.23-16.3,28.16l0.52,44.76v35.44v3.27v23.68v8.88v10.82c0,11.93,5.9,22.18,16.23,28.16l32.42,18.7l66.92,38.62
		c10.33,5.99,22.18,5.99,32.5,0l99.34-57.33c10.33-5.99,16.23-16.23,16.23-28.16v-34.63v-2.07v-62.2v-3.6v-24.34
		C-1462.11,132.19-1468.02,121.95-1478.41,115.96z"/>
	<g>
		<g id="Layer_x5F_1_3_">
			<g id="_642949840_3_">
				<g>
					<path class="st3" d="M-1478.86,115.96l-99.29-57.33c-10.33-5.95-22.18-5.95-32.5,0l-99.34,57.33
						c-10.33,5.99-16.27,16.23-16.27,28.16v18.14c22.6-1.52,46.85,0.01,72.01,4.52c-0.14-1.71-0.24-3.43-0.24-5.17
						c0-33.31,27.01-60.32,60.32-60.32c33.31,0,60.32,27.01,60.32,60.32c0,2.46-0.16,4.88-0.45,7.26c0.11,0,0.21-0.01,0.32-0.01
						c22.48-0.61,45.74,0.39,69.3,2.99l2.08,0.22v-27.95C-1462.59,132.19-1468.49,121.95-1478.86,115.96z"/>
					<path class="st4" d="M-1725.74,248.45v-24.13c1.65-0.26,3.3-0.48,4.99-0.69c81.63-10.85,160.87-4.34,226.66,15.41
						c-39.62,4.86-76.47,15.23-108.67,29.86C-1639.91,256.35-1681.61,249.01-1725.74,248.45z"/>
					<path class="st4" d="M-1677.1,317.84l-32.42-18.7c-10.33-5.99-16.23-16.23-16.23-28.16v-19.7c40.19,2.43,78.03,10.5,111.79,23
						C-1638.21,286.46-1659.52,301.17-1677.1,317.84z"/>
					<path class="st1" d="M-1462.11,239.85v31.12c0,11.93-5.9,22.18-16.23,28.16l-99.34,57.33c-10.33,5.99-22.18,5.99-32.5,0
						l-52.64-30.38C-1618.29,280.21-1545.99,247.8-1462.11,239.85z"/>
					<path class="st5" d="M-1462.11,175.02v61.32h-0.04c-65.27-21.05-144.77-28.82-227.01-18.96
						C-1630.23,185.48-1549.51,168.99-1462.11,175.02z"/>
					<path class="st0" d="M-1633.14,182.92c-34.98,8.9-66.4,21.92-92.61,38.28v-41.66C-1697.49,175.5-1666.07,176.67-1633.14,182.92
						z"/>
				</g>
			</g>
		</g>
		<g>
			<path class="st1" d="M-1594.42,126.7h6.56c1.48,0,2.86-0.42,4-1.17c1.15-0.75,2.08-1.84,2.65-3.16c0.29-0.68,0.37-1.38,0.24-2.03
				c-0.13-0.66-0.46-1.28-0.98-1.8l-1.01-1.01c-0.74-0.74-0.74-1.94,0-2.68c0.74-0.74,1.94-0.74,2.68,0l1.01,1.01
				c1.06,1.06,1.74,2.37,2.01,3.77c0.27,1.39,0.12,2.86-0.48,4.24c-0.87,2.01-2.29,3.67-4.07,4.83c-1.75,1.14-3.83,1.79-6.06,1.79
				h-6.56h-6.56c-2.22,0-4.31-0.65-6.06-1.79c-1.78-1.16-3.2-2.82-4.07-4.83c-0.6-1.38-0.75-2.85-0.48-4.24
				c0.27-1.4,0.95-2.7,2.01-3.77l1.01-1.01c0.74-0.74,1.94-0.74,2.68,0c0.74,0.74,0.74,1.94,0,2.68l-1.01,1.01
				c-0.52,0.52-0.85,1.14-0.98,1.8c-0.13,0.65-0.05,1.36,0.24,2.03c0.57,1.32,1.49,2.41,2.65,3.16c1.14,0.75,2.52,1.17,4,1.17
				H-1594.42z"/>
			<path class="st1" d="M-1594.42,172.27h-3.16c-2.87,0-5.52-1.02-7.56-2.76c-2.05-1.73-3.49-4.18-3.95-7.02l-3.41-20.78h-4.44
				c-2.27,0-4.39-0.5-6.29-1.46c-1.9-0.96-3.56-2.38-4.9-4.21l-3.11-4.24c-0.28-0.33-0.45-0.76-0.45-1.22
				c0-1.04,0.85-1.89,1.89-1.89h9.61c2.72,0,5.22,0.97,7.16,2.61c1.94,1.64,3.3,3.96,3.74,6.65l0.02,0.1c1.66,0.26,3.19,0.96,4.44,2
				c1.68,1.39,2.88,3.36,3.27,5.65c0.17,1.03-0.52,2-1.55,2.18c-1.03,0.17-2-0.52-2.18-1.55c-0.23-1.36-0.94-2.53-1.93-3.35
				c-0.41-0.34-0.88-0.62-1.38-0.83l3.24,19.76c0.26,1.6,0.98,3.01,2,4.11c0.8-1.15,1.81-2.13,2.97-2.89
				c1.75-1.15,3.82-1.79,5.98-1.79c2.16,0,4.23,0.65,5.98,1.79c1.15,0.76,2.16,1.74,2.97,2.89c1.02-1.1,1.74-2.51,2-4.11l3.24-19.76
				c-0.5,0.21-0.96,0.49-1.38,0.83c-1,0.82-1.71,1.99-1.93,3.35c-0.17,1.03-1.15,1.72-2.17,1.55c-1.03-0.17-1.73-1.15-1.55-2.18
				c0.38-2.28,1.58-4.26,3.27-5.65c1.26-1.03,2.78-1.74,4.44-2l0.02-0.1c0.44-2.69,1.8-5,3.74-6.65c1.93-1.64,4.44-2.61,7.15-2.61
				h9.61c1.05,0,1.89,0.85,1.89,1.89c0,0.47-0.17,0.89-0.45,1.22l-3.11,4.24c-1.34,1.83-3,3.25-4.9,4.21
				c-1.9,0.96-4.02,1.46-6.29,1.46h-4.44l-3.41,20.78c-0.47,2.84-1.91,5.29-3.95,7.02c-2.05,1.74-4.69,2.76-7.56,2.76H-1594.42z"/>
		</g>
	</g>
</g>
<g>
	<path class="st2" d="M-573.91,115.96l-99.47-57.33c-10.35-5.95-22.22-5.95-32.56,0l-99.52,57.33c-10.35,5.99-16.3,16.23-16.3,28.16
		l0.52,44.76v35.44v3.27v23.68v8.88v10.82c0,11.93,5.9,22.18,16.23,28.16l32.42,18.7l66.92,38.62c10.33,5.99,22.18,5.99,32.5,0
		l99.34-57.33c10.33-5.99,16.23-16.23,16.23-28.16v-34.63v-2.07v-62.2v-3.6v-24.34C-557.61,132.19-563.52,121.95-573.91,115.96z"/>
	<g>
		<g id="Layer_x5F_1_2_">
			<g id="_642949840_2_">
				<g>
					<path d="M-574.36,115.96l-99.29-57.33c-10.33-5.95-22.18-5.95-32.5,0l-99.34,57.33c-10.33,5.99-16.27,16.23-16.27,28.16v18.14
						c22.6-1.52,46.85,0.01,72.01,4.52c-0.14-1.71-0.24-3.43-0.24-5.17c0-33.31,27.01-60.32,60.32-60.32
						c33.31,0,60.32,27.01,60.32,60.32c0,2.46-0.16,4.88-0.45,7.26c0.11,0,0.21-0.01,0.32-0.01c22.48-0.61,45.74,0.39,69.3,2.99
						l2.08,0.22v-27.95C-558.09,132.19-563.99,121.95-574.36,115.96z"/>
					<path d="M-821.25,248.45v-24.13c1.65-0.26,3.3-0.48,4.99-0.69c81.63-10.85,160.87-4.34,226.66,15.41
						c-39.62,4.86-76.47,15.23-108.67,29.86C-735.41,256.35-777.11,249.01-821.25,248.45z"/>
					<path d="M-772.6,317.84l-32.42-18.7c-10.33-5.99-16.23-16.23-16.23-28.16v-19.7c40.19,2.43,78.03,10.5,111.79,23
						C-733.71,286.46-755.02,301.17-772.6,317.84z"/>
					<path d="M-557.61,239.85v31.12c0,11.93-5.9,22.18-16.23,28.16l-99.34,57.33c-10.33,5.99-22.18,5.99-32.5,0l-52.64-30.38
						C-713.8,280.21-641.5,247.8-557.61,239.85z"/>
					<path d="M-557.61,175.02v61.32h-0.04c-65.27-21.05-144.77-28.82-227.01-18.96C-725.73,185.48-645.01,168.99-557.61,175.02z"/>
					<path d="M-728.64,182.92c-34.98,8.9-66.4,21.92-92.61,38.28v-41.66C-792.99,175.5-761.58,176.67-728.64,182.92z"/>
				</g>
			</g>
		</g>
		<g>
			<path d="M-689.93,126.7h6.56c1.48,0,2.86-0.42,4-1.17c1.15-0.75,2.08-1.84,2.65-3.16c0.29-0.68,0.37-1.38,0.24-2.03
				c-0.13-0.66-0.46-1.28-0.98-1.8l-1.01-1.01c-0.74-0.74-0.74-1.94,0-2.68c0.74-0.74,1.94-0.74,2.68,0l1.01,1.01
				c1.06,1.06,1.74,2.37,2.01,3.77c0.27,1.39,0.12,2.86-0.48,4.24c-0.87,2.01-2.29,3.67-4.07,4.83c-1.75,1.14-3.83,1.79-6.06,1.79
				h-6.56h-6.56c-2.22,0-4.31-0.65-6.06-1.79c-1.78-1.16-3.2-2.82-4.07-4.83c-0.6-1.38-0.75-2.85-0.48-4.24
				c0.27-1.4,0.95-2.7,2.01-3.77l1.01-1.01c0.74-0.74,1.94-0.74,2.68,0c0.74,0.74,0.74,1.94,0,2.68l-1.01,1.01
				c-0.52,0.52-0.85,1.14-0.98,1.8c-0.13,0.65-0.05,1.36,0.24,2.03c0.57,1.32,1.49,2.41,2.65,3.16c1.14,0.75,2.52,1.17,4,1.17
				H-689.93z"/>
			<path d="M-689.93,172.27h-3.16c-2.87,0-5.52-1.02-7.56-2.76c-2.05-1.73-3.49-4.18-3.95-7.02l-3.41-20.78h-4.44
				c-2.27,0-4.39-0.5-6.29-1.46c-1.9-0.96-3.56-2.38-4.9-4.21l-3.11-4.24c-0.28-0.33-0.45-0.76-0.45-1.22
				c0-1.04,0.85-1.89,1.89-1.89h9.61c2.72,0,5.22,0.97,7.16,2.61c1.94,1.64,3.3,3.96,3.74,6.65l0.02,0.1c1.66,0.26,3.19,0.96,4.44,2
				c1.68,1.39,2.88,3.36,3.27,5.65c0.17,1.03-0.52,2-1.55,2.18c-1.03,0.17-2-0.52-2.18-1.55c-0.23-1.36-0.94-2.53-1.93-3.35
				c-0.41-0.34-0.88-0.62-1.38-0.83l3.24,19.76c0.26,1.6,0.98,3.01,2,4.11c0.8-1.15,1.81-2.13,2.97-2.89
				c1.75-1.15,3.82-1.79,5.98-1.79c2.16,0,4.23,0.65,5.98,1.79c1.15,0.76,2.16,1.74,2.97,2.89c1.02-1.1,1.74-2.51,2-4.11l3.24-19.76
				c-0.5,0.21-0.96,0.49-1.38,0.83c-1,0.82-1.71,1.99-1.93,3.35c-0.17,1.03-1.15,1.72-2.17,1.55c-1.03-0.17-1.73-1.15-1.55-2.18
				c0.38-2.28,1.58-4.26,3.27-5.65c1.26-1.03,2.78-1.74,4.44-2l0.02-0.1c0.44-2.69,1.8-5,3.74-6.65c1.93-1.64,4.44-2.61,7.15-2.61
				h9.61c1.05,0,1.89,0.85,1.89,1.89c0,0.47-0.17,0.89-0.45,1.22l-3.11,4.24c-1.34,1.83-3,3.25-4.9,4.21
				c-1.9,0.96-4.02,1.46-6.29,1.46h-4.44l-3.41,20.78c-0.47,2.84-1.91,5.29-3.95,7.02c-2.05,1.74-4.69,2.76-7.56,2.76H-689.93z"/>
		</g>
	</g>
</g>
<g>
	<path class="st2" d="M-1472.62,577.21l-99.47-57.33c-10.35-5.95-22.22-5.95-32.56,0l-99.52,57.33
		c-10.35,5.99-16.3,16.23-16.3,28.16l0.52,44.76v35.44v3.27v23.68v8.88v10.82c0,11.93,5.9,22.18,16.23,28.16l32.42,18.7l66.92,38.62
		c10.33,5.99,22.18,5.99,32.5,0l99.34-57.33c10.33-5.99,16.23-16.23,16.23-28.16v-34.63v-2.07v-62.2v-3.6v-24.34
		C-1456.31,593.44-1462.23,583.19-1472.62,577.21z"/>
	<g>
		<g id="Layer_x5F_1_5_">
			<g id="_642949840_5_">
				<g>
					<path class="st3" d="M-1473.07,577.21l-99.29-57.33c-10.33-5.95-22.18-5.95-32.5,0l-99.34,57.33
						c-10.33,5.99-16.27,16.23-16.27,28.16v18.14c22.6-1.52,46.85,0.01,72.01,4.52c-0.15-1.71-0.24-3.43-0.24-5.17
						c0-33.31,27.01-60.32,60.32-60.32s60.32,27.01,60.32,60.32c0,2.46-0.16,4.88-0.45,7.26c0.11,0,0.21-0.01,0.32-0.01
						c22.48-0.61,45.74,0.39,69.3,2.99l2.08,0.22v-27.95C-1456.79,593.44-1462.69,583.19-1473.07,577.21z"/>
					<path class="st4" d="M-1719.95,709.7v-24.13c1.65-0.26,3.3-0.48,4.99-0.69c81.63-10.85,160.87-4.34,226.66,15.41
						c-39.62,4.86-76.47,15.23-108.67,29.86C-1634.11,717.59-1675.82,710.26-1719.95,709.7z"/>
					<path class="st4" d="M-1671.3,779.09l-32.42-18.7c-10.33-5.99-16.23-16.23-16.23-28.16v-19.7c40.19,2.43,78.03,10.5,111.79,23
						C-1632.42,747.71-1653.73,762.42-1671.3,779.09z"/>
					<path class="st1" d="M-1456.31,701.1v31.12c0,11.93-5.9,22.18-16.23,28.16l-99.34,57.33c-10.33,5.99-22.18,5.99-32.5,0
						l-52.64-30.38C-1612.5,741.46-1540.2,709.05-1456.31,701.1z"/>
					<path class="st5" d="M-1456.31,636.27v61.32h-0.04c-65.27-21.05-144.77-28.82-227.01-18.96
						C-1624.43,646.73-1543.72,630.24-1456.31,636.27z"/>
					<path class="st0" d="M-1627.34,644.17c-34.98,8.9-66.4,21.92-92.61,38.28v-41.66C-1691.7,636.75-1660.28,637.92-1627.34,644.17
						z"/>
				</g>
			</g>
		</g>
		<g>
			<path class="st1" d="M-1588.63,587.95h6.56c1.48,0,2.86-0.42,4-1.17c1.15-0.75,2.08-1.84,2.65-3.16
				c0.29-0.68,0.37-1.38,0.24-2.03c-0.13-0.66-0.46-1.28-0.98-1.8l-1.01-1.01c-0.74-0.74-0.74-1.94,0-2.68
				c0.74-0.74,1.94-0.74,2.68,0l1.01,1.01c1.06,1.06,1.74,2.37,2.01,3.77c0.27,1.39,0.12,2.86-0.48,4.24
				c-0.87,2.01-2.29,3.67-4.07,4.83c-1.75,1.14-3.83,1.79-6.06,1.79h-6.56h-6.56c-2.22,0-4.31-0.65-6.06-1.79
				c-1.78-1.16-3.2-2.82-4.07-4.83c-0.6-1.38-0.75-2.85-0.48-4.24c0.27-1.4,0.95-2.7,2.01-3.77l1.01-1.01
				c0.74-0.74,1.94-0.74,2.68,0c0.74,0.74,0.74,1.94,0,2.68l-1.01,1.01c-0.52,0.52-0.85,1.14-0.98,1.8
				c-0.13,0.65-0.05,1.36,0.24,2.03c0.57,1.32,1.49,2.41,2.65,3.16c1.14,0.75,2.52,1.17,4,1.17H-1588.63z"/>
			<path class="st1" d="M-1588.63,633.52h-3.16c-2.87,0-5.52-1.02-7.56-2.76c-2.05-1.73-3.49-4.18-3.95-7.02l-3.41-20.78h-4.44
				c-2.27,0-4.39-0.5-6.29-1.46c-1.9-0.96-3.56-2.38-4.9-4.21l-3.11-4.24c-0.28-0.33-0.45-0.76-0.45-1.22
				c0-1.04,0.85-1.89,1.89-1.89h9.61c2.72,0,5.22,0.97,7.16,2.61c1.94,1.64,3.3,3.96,3.74,6.65l0.02,0.1c1.66,0.26,3.19,0.96,4.44,2
				c1.68,1.39,2.88,3.36,3.27,5.65c0.17,1.03-0.52,2-1.55,2.18c-1.03,0.17-2-0.52-2.18-1.55c-0.23-1.36-0.94-2.53-1.93-3.35
				c-0.41-0.34-0.88-0.62-1.38-0.83l3.24,19.76c0.26,1.6,0.98,3.01,2,4.11c0.8-1.15,1.81-2.13,2.97-2.89
				c1.75-1.15,3.82-1.79,5.98-1.79c2.16,0,4.23,0.65,5.98,1.79c1.15,0.76,2.16,1.74,2.97,2.89c1.02-1.1,1.74-2.51,2-4.11l3.24-19.76
				c-0.5,0.21-0.96,0.49-1.38,0.83c-1,0.82-1.71,1.99-1.93,3.35c-0.17,1.03-1.15,1.72-2.17,1.55c-1.03-0.17-1.73-1.15-1.55-2.18
				c0.38-2.28,1.58-4.26,3.27-5.65c1.26-1.03,2.78-1.74,4.44-2l0.02-0.1c0.44-2.69,1.8-5,3.74-6.65c1.93-1.64,4.44-2.61,7.15-2.61
				h9.61c1.05,0,1.89,0.85,1.89,1.89c0,0.47-0.17,0.89-0.45,1.22l-3.11,4.24c-1.34,1.83-3,3.25-4.9,4.21
				c-1.9,0.96-4.02,1.46-6.29,1.46h-4.44l-3.41,20.78c-0.47,2.84-1.91,5.29-3.95,7.02c-2.05,1.74-4.69,2.76-7.56,2.76H-1588.63z"/>
		</g>
	</g>
</g>
<g>
	<g>
		<path class="st2" d="M383.66,152.1l10.43,32.2h-3.86l-2.99-9.37h-12.95l-2.99,9.37h-3.77l10.43-32.2H383.66z M375.35,171.67h10.84
			l-3.44-10.84c-0.23-0.92-1.75-5.6-1.88-6.2h-0.18c-0.09,0.55-1.61,5.24-1.84,6.11L375.35,171.67z"/>
		<path class="st2" d="M401.34,155.36h-8.59v-3.26h20.81v3.26h-8.54v28.94h-3.67V155.36z"/>
		<path class="st2" d="M422.1,152.1v28.94h13.83v3.26h-17.5v-32.2H422.1z"/>
		<path class="st2" d="M453.15,152.1l10.43,32.2h-3.86l-2.99-9.37h-12.95l-2.99,9.37h-3.77l10.43-32.2H453.15z M444.84,171.67h10.84
			l-3.44-10.84c-0.23-0.92-1.75-5.6-1.88-6.2h-0.18c-0.09,0.55-1.61,5.24-1.84,6.11L444.84,171.67z"/>
		<path class="st2" d="M482.45,176.08c0-7.3-15.34-5.65-15.34-15.8c0-4.87,4.18-8.63,9.97-8.63c3.63,0,6.48,1.19,8.31,2.71
			l-2.25,2.85c-1.61-1.29-3.58-2.2-6.29-2.2c-3.77,0-6.02,2.11-6.02,5.05c0,7.44,15.34,5.88,15.34,15.8c0,4.87-3.86,8.91-10.75,8.91
			c-4.87,0-8.22-1.75-10.06-3.4l2.16-2.94c1.79,1.47,4.36,3.03,8.22,3.03C480.11,181.45,482.45,179.06,482.45,176.08z"/>
		<path class="st2" d="M505.97,152.1h8.45c9.69,0,14.05,5.01,14.05,15.8c0,10.47-4.23,16.4-14.1,16.4h-8.41V152.1z M509.64,181.04
			h4.69c7.07,0,10.38-3.49,10.38-12.72c0-9.6-3.77-12.95-10.61-12.95h-4.46V181.04z"/>
		<path class="st2" d="M546.84,152.1l10.43,32.2h-3.86l-2.99-9.37h-12.95l-2.99,9.37h-3.77l10.43-32.2H546.84z M538.53,171.67h10.84
			l-3.44-10.84c-0.23-0.92-1.75-5.6-1.88-6.2h-0.18c-0.09,0.55-1.61,5.24-1.84,6.11L538.53,171.67z"/>
		<path class="st2" d="M576.14,176.08c0-7.3-15.34-5.65-15.34-15.8c0-4.87,4.18-8.63,9.97-8.63c3.63,0,6.48,1.19,8.31,2.71
			l-2.25,2.85c-1.61-1.29-3.58-2.2-6.29-2.2c-3.77,0-6.02,2.11-6.02,5.05c0,7.44,15.34,5.88,15.34,15.8c0,4.87-3.86,8.91-10.75,8.91
			c-4.87,0-8.22-1.75-10.06-3.4l2.16-2.94c1.79,1.47,4.36,3.03,8.22,3.03C573.8,181.45,576.14,179.06,576.14,176.08z"/>
	</g>
	<g>
		<path class="st2" d="M387.32,252.78c-2.93,0-5.32-0.27-7.71-0.8v17.73h-13.3v-67.28h9.84l2.84,4.25h0.35
			c1.86-2.22,5.67-5.14,11.97-5.14c10.99,0,18.53,8.24,18.53,23.84C409.83,243.82,399.37,252.78,387.32,252.78z M385.72,241.96
			c6.47,0,10.46-3.72,10.46-15.42c0-9.93-4.17-14.18-9.4-14.18c-3.01,0-5.76,1.42-7.36,3.81v24.29
			C381.38,241.61,384.39,241.96,385.72,241.96z"/>
		<path class="st2" d="M453.44,218.12v20.03c0,2.84,1.06,4.08,3.46,4.08h1.42v9.22c-2.13,1.33-4.43,1.68-6.65,1.68
			c-4.79,0-7.53-2.3-9.04-5.41h-0.35c-1.86,2.48-5.58,5.58-12.76,5.58c-9.75,0-14.8-6.65-14.8-13.83
			c0-11.52,10.37-16.84,26.15-16.04v-3.9c0-5.58-3.1-7.27-7.18-7.27c-4.79,0-7.36,2.75-8.6,5.67l-9.48-7
			c1.95-2.75,6.91-9.4,17.99-9.4C446.35,201.54,453.44,205.98,453.44,218.12z M440.85,232.48c-8.78-0.62-13.12,1.42-13.12,5.76
			c0,2.84,1.95,4.88,5.41,4.88c3.28,0,6.2-1.51,7.71-3.55V232.48z"/>
		<path class="st2" d="M462.21,217.06c0-8.16,7-15.51,18.61-15.51c9.04,0,14.8,3.19,18.08,7l-8.6,8.42c-1.77-2.04-5.23-4.7-9.84-4.7
			c-3.01,0-4.96,1.6-4.96,3.9c0,7.53,23.58,4.88,23.58,21.63c0,6.65-5.23,15.6-19.77,15.6c-10.99,0-17.64-4.61-20.39-7.53l7.98-9.22
			c2.22,2.57,7.09,6.21,13.12,6.21c4.17,0,5.76-1.95,5.76-4.25C485.79,231.33,462.21,233.72,462.21,217.06z"/>
		<path class="st2" d="M507.41,236.47v-23.84h-6.38v-8.33l6.47-2.66l4.61-11.79h8.51v12.59h12.5v10.19h-12.5v24.2
			c0,3.46,1.95,5.23,5.23,5.23c2.13,0,4.88-0.71,6.83-2.22l3.46,10.02c-1.68,1.24-5.58,3.1-13.92,3.1
			C513.62,252.95,507.41,248.61,507.41,236.47z"/>
		<path class="st2" d="M576.19,218.12v20.03c0,2.84,1.06,4.08,3.46,4.08h1.42v9.22c-2.13,1.33-4.43,1.68-6.65,1.68
			c-4.79,0-7.53-2.3-9.04-5.41h-0.35c-1.86,2.48-5.58,5.58-12.76,5.58c-9.75,0-14.8-6.65-14.8-13.83
			c0-11.52,10.37-16.84,26.15-16.04v-3.9c0-5.58-3.1-7.27-7.18-7.27c-4.79,0-7.36,2.75-8.6,5.67l-9.48-7
			c1.95-2.75,6.91-9.4,17.99-9.4C569.1,201.54,576.19,205.98,576.19,218.12z M563.61,232.48c-8.78-0.62-13.12,1.42-13.12,5.76
			c0,2.84,1.95,4.88,5.41,4.88c3.28,0,6.2-1.51,7.71-3.55V232.48z"/>
		<path class="st2" d="M627.25,250.3c0,13.65-9.57,20.39-22.96,20.39c-12.32,0-17.28-3.46-20.12-6.83l7.53-9.84
			c2.48,3.46,7.36,5.85,12.59,5.85c6.91,0,9.84-2.57,9.84-9.66v-2.57h-0.35c-1.86,1.68-5.32,2.84-9.84,2.84
			c-10.37,0-19.68-5.14-19.68-23.13c0-14.09,7.98-25.53,24.38-25.53c8.77,0,14.18,1.06,18.61,3.01V250.3z M608.55,212.36
			c-7,0-10.99,4.88-10.99,14.45c0,10.28,3.55,12.85,9.48,12.85c2.92,0,5.32-0.89,7-2.57v-23.84
			C612.18,212.62,610.67,212.36,608.55,212.36z"/>
		<path class="st2" d="M677.06,247.9c-3.9,3.19-8.78,5.58-18.35,5.58c-15.78,0-23.84-8.86-23.84-26.15
			c0-16.22,9.04-25.88,23.49-25.88c12.76,0,20.12,8.07,20.12,20.3c0,2.57-0.09,5.05-0.62,8.95h-29.87
			c0.18,7.89,3.72,12.23,12.23,12.23c5.41,0,9.13-2.57,10.99-4.52L677.06,247.9z M648.25,221.84h17.64v-1.33
			c0-5.85-2.48-8.95-7.89-8.95C651.98,211.56,648.43,215.99,648.25,221.84z"/>
		<path class="st2" d="M728.64,252.51h-13.38v-31.82c0-5.14-2.39-8.15-6.91-8.15c-3.9,0-7.09,2.3-8.6,5.94v34.04h-13.38v-50.08
			h10.46l2.66,4.7h0.35c3.01-3.63,8.24-5.94,13.47-5.94c9.75,0,15.33,5.41,15.33,16.66V252.51z"/>
		<path class="st2" d="M736.8,217.06c0-8.16,7-15.51,18.61-15.51c9.04,0,14.8,3.19,18.08,7l-8.6,8.42c-1.77-2.04-5.23-4.7-9.84-4.7
			c-3.01,0-4.96,1.6-4.96,3.9c0,7.53,23.58,4.88,23.58,21.63c0,6.65-5.23,15.6-19.77,15.6c-10.99,0-17.64-4.61-20.39-7.53l7.98-9.22
			c2.22,2.57,7.09,6.21,13.12,6.21c4.17,0,5.76-1.95,5.76-4.25C760.38,231.33,736.8,233.72,736.8,217.06z"/>
	</g>
	<g>
		<g id="Layer_x5F_1_1_">
			<g id="_642949840_1_">
				<g>
					<path class="st2" d="M323.39,115.96L224.1,58.63c-10.33-5.95-22.18-5.95-32.5,0l-99.34,57.33
						c-10.33,5.99-16.27,16.23-16.27,28.16v18.14c22.6-1.52,46.85,0.01,72.01,4.52c-0.14-1.71-0.24-3.43-0.24-5.17
						c0-33.31,27.01-60.32,60.32-60.32c33.31,0,60.32,27.01,60.32,60.32c0,2.46-0.16,4.88-0.45,7.26c0.11,0,0.21-0.01,0.32-0.01
						c22.48-0.61,45.74,0.39,69.3,2.99l2.08,0.22v-27.95C339.66,132.19,333.76,121.95,323.39,115.96z"/>
					<path class="st2" d="M76.5,248.45v-24.13c1.65-0.26,3.3-0.48,4.99-0.69c81.63-10.85,160.87-4.34,226.66,15.41
						c-39.62,4.86-76.47,15.23-108.67,29.86C162.34,256.35,120.64,249.01,76.5,248.45z"/>
					<path class="st2" d="M125.15,317.84l-32.42-18.7C82.4,293.15,76.5,282.9,76.5,270.97v-19.7c40.19,2.43,78.03,10.5,111.79,23
						C164.03,286.46,142.73,301.17,125.15,317.84z"/>
					<path class="st2" d="M340.14,239.85v31.12c0,11.93-5.9,22.18-16.23,28.16l-99.34,57.33c-10.33,5.99-22.18,5.99-32.5,0
						l-52.64-30.38C183.95,280.21,256.25,247.8,340.14,239.85z"/>
					<path class="st2" d="M340.14,175.02v61.32h-0.04c-65.27-21.05-144.77-28.82-227.01-18.96
						C172.02,185.48,252.74,168.99,340.14,175.02z"/>
					<path class="st2" d="M169.11,182.92c-34.98,8.9-66.4,21.92-92.61,38.28v-41.66C104.75,175.5,136.17,176.67,169.11,182.92z"/>
				</g>
			</g>
		</g>
		<g>
			<path class="st2" d="M207.82,126.7h6.56c1.48,0,2.86-0.42,4-1.17c1.15-0.75,2.08-1.84,2.65-3.16c0.29-0.68,0.37-1.38,0.24-2.03
				c-0.13-0.66-0.46-1.28-0.98-1.8l-1.01-1.01c-0.74-0.74-0.74-1.94,0-2.68c0.74-0.74,1.94-0.74,2.68,0l1.01,1.01
				c1.06,1.06,1.75,2.37,2.01,3.77c0.27,1.39,0.12,2.86-0.48,4.24c-0.87,2.01-2.29,3.67-4.07,4.83c-1.75,1.14-3.83,1.79-6.06,1.79
				h-6.56h-6.56c-2.22,0-4.31-0.65-6.06-1.79c-1.78-1.16-3.2-2.82-4.07-4.83c-0.6-1.38-0.75-2.85-0.48-4.24
				c0.27-1.4,0.95-2.7,2.01-3.77l1.01-1.01c0.74-0.74,1.94-0.74,2.68,0c0.74,0.74,0.74,1.94,0,2.68l-1.01,1.01
				c-0.52,0.52-0.85,1.14-0.98,1.8c-0.13,0.65-0.05,1.36,0.24,2.03c0.57,1.32,1.49,2.41,2.65,3.16c1.14,0.75,2.52,1.17,4,1.17
				H207.82z"/>
			<path class="st2" d="M207.82,172.27h-3.16c-2.87,0-5.52-1.02-7.56-2.76c-2.05-1.73-3.49-4.18-3.95-7.02l-3.41-20.78h-4.44
				c-2.27,0-4.39-0.5-6.29-1.46c-1.9-0.96-3.56-2.38-4.9-4.21l-3.11-4.24c-0.28-0.33-0.45-0.76-0.45-1.22
				c0-1.04,0.85-1.89,1.89-1.89h9.61c2.72,0,5.22,0.97,7.16,2.61c1.94,1.64,3.3,3.96,3.74,6.65l0.02,0.1c1.66,0.26,3.19,0.96,4.44,2
				c1.68,1.39,2.88,3.36,3.27,5.65c0.17,1.03-0.52,2-1.55,2.18c-1.03,0.17-2-0.52-2.18-1.55c-0.23-1.36-0.94-2.53-1.93-3.35
				c-0.41-0.34-0.88-0.62-1.38-0.83l3.24,19.76c0.26,1.6,0.98,3.01,2,4.11c0.8-1.15,1.81-2.13,2.97-2.89
				c1.75-1.15,3.82-1.79,5.98-1.79c2.16,0,4.23,0.65,5.98,1.79c1.15,0.76,2.16,1.74,2.97,2.89c1.02-1.1,1.74-2.51,2-4.11l3.24-19.76
				c-0.5,0.21-0.96,0.49-1.38,0.83c-1,0.82-1.71,1.99-1.93,3.35c-0.17,1.03-1.15,1.72-2.17,1.55c-1.03-0.17-1.73-1.15-1.55-2.18
				c0.38-2.28,1.58-4.26,3.27-5.65c1.26-1.03,2.78-1.74,4.44-2l0.02-0.1c0.44-2.69,1.8-5,3.74-6.65c1.93-1.64,4.44-2.61,7.15-2.61
				h9.61c1.05,0,1.89,0.85,1.89,1.89c0,0.47-0.17,0.89-0.45,1.22l-3.11,4.24c-1.34,1.83-3,3.25-4.9,4.21
				c-1.9,0.96-4.02,1.46-6.29,1.46h-4.44l-3.41,20.78c-0.47,2.84-1.91,5.29-3.95,7.02c-2.05,1.74-4.69,2.76-7.56,2.76H207.82z"/>
		</g>
	</g>
</g>
<g>
	<g>
		<path d="M-514.09,152.1l10.43,32.2h-3.86l-2.99-9.37h-12.95l-2.99,9.37h-3.77l10.43-32.2H-514.09z M-522.4,171.67h10.84
			l-3.44-10.84c-0.23-0.92-1.75-5.6-1.88-6.2h-0.18c-0.09,0.55-1.61,5.24-1.84,6.11L-522.4,171.67z"/>
		<path d="M-496.41,155.36H-505v-3.26h20.81v3.26h-8.54v28.94h-3.67V155.36z"/>
		<path d="M-475.65,152.1v28.94h13.83v3.26h-17.5v-32.2H-475.65z"/>
		<path d="M-444.6,152.1l10.43,32.2h-3.86l-2.99-9.37h-12.95l-2.99,9.37h-3.77l10.43-32.2H-444.6z M-452.91,171.67h10.84
			l-3.44-10.84c-0.23-0.92-1.75-5.6-1.88-6.2h-0.18c-0.09,0.55-1.61,5.24-1.84,6.11L-452.91,171.67z"/>
		<path d="M-415.3,176.08c0-7.3-15.34-5.65-15.34-15.8c0-4.87,4.18-8.63,9.97-8.63c3.63,0,6.48,1.19,8.31,2.71l-2.25,2.85
			c-1.61-1.29-3.58-2.2-6.29-2.2c-3.77,0-6.02,2.11-6.02,5.05c0,7.44,15.34,5.88,15.34,15.8c0,4.87-3.86,8.91-10.75,8.91
			c-4.87,0-8.22-1.75-10.06-3.4l2.16-2.94c1.79,1.47,4.36,3.03,8.22,3.03C-417.64,181.45-415.3,179.06-415.3,176.08z"/>
		<path d="M-391.78,152.1h8.45c9.69,0,14.05,5.01,14.05,15.8c0,10.47-4.23,16.4-14.1,16.4h-8.41V152.1z M-388.11,181.04h4.69
			c7.07,0,10.38-3.49,10.38-12.72c0-9.6-3.77-12.95-10.61-12.95h-4.46V181.04z"/>
		<path d="M-350.91,152.1l10.43,32.2h-3.86l-2.99-9.37h-12.95l-2.99,9.37h-3.77l10.43-32.2H-350.91z M-359.22,171.67h10.84
			l-3.44-10.84c-0.23-0.92-1.75-5.6-1.88-6.2h-0.18c-0.09,0.55-1.61,5.24-1.84,6.11L-359.22,171.67z"/>
		<path d="M-321.6,176.08c0-7.3-15.34-5.65-15.34-15.8c0-4.87,4.18-8.63,9.97-8.63c3.63,0,6.48,1.19,8.31,2.71l-2.25,2.85
			c-1.61-1.29-3.58-2.2-6.29-2.2c-3.77,0-6.02,2.11-6.02,5.05c0,7.44,15.34,5.88,15.34,15.8c0,4.87-3.86,8.91-10.75,8.91
			c-4.87,0-8.22-1.75-10.06-3.4l2.16-2.94c1.79,1.47,4.36,3.03,8.22,3.03C-323.95,181.45-321.6,179.06-321.6,176.08z"/>
	</g>
	<g>
		<path d="M-510.43,252.78c-2.93,0-5.32-0.27-7.71-0.8v17.73h-13.3v-67.28h9.84l2.84,4.25h0.35c1.86-2.22,5.67-5.14,11.97-5.14
			c10.99,0,18.53,8.24,18.53,23.84C-487.92,243.82-498.38,252.78-510.43,252.78z M-512.03,241.96c6.47,0,10.46-3.72,10.46-15.42
			c0-9.93-4.17-14.18-9.4-14.18c-3.01,0-5.76,1.42-7.36,3.81v24.29C-516.37,241.61-513.36,241.96-512.03,241.96z"/>
		<path d="M-444.31,218.12v20.03c0,2.84,1.06,4.08,3.46,4.08h1.42v9.22c-2.13,1.33-4.43,1.68-6.65,1.68c-4.79,0-7.53-2.3-9.04-5.41
			h-0.35c-1.86,2.48-5.58,5.58-12.76,5.58c-9.75,0-14.8-6.65-14.8-13.83c0-11.52,10.37-16.84,26.15-16.04v-3.9
			c0-5.58-3.1-7.27-7.18-7.27c-4.79,0-7.36,2.75-8.6,5.67l-9.48-7c1.95-2.75,6.91-9.4,17.99-9.4
			C-451.4,201.54-444.31,205.98-444.31,218.12z M-456.9,232.48c-8.78-0.62-13.12,1.42-13.12,5.76c0,2.84,1.95,4.88,5.41,4.88
			c3.28,0,6.2-1.51,7.71-3.55V232.48z"/>
		<path d="M-435.54,217.06c0-8.16,7-15.51,18.61-15.51c9.04,0,14.8,3.19,18.08,7l-8.6,8.42c-1.77-2.04-5.23-4.7-9.84-4.7
			c-3.01,0-4.96,1.6-4.96,3.9c0,7.53,23.58,4.88,23.58,21.63c0,6.65-5.23,15.6-19.77,15.6c-10.99,0-17.64-4.61-20.39-7.53l7.98-9.22
			c2.22,2.57,7.09,6.21,13.12,6.21c4.17,0,5.76-1.95,5.76-4.25C-411.96,231.33-435.54,233.72-435.54,217.06z"/>
		<path d="M-390.34,236.47v-23.84h-6.38v-8.33l6.47-2.66l4.61-11.79h8.51v12.59h12.5v10.19h-12.5v24.2c0,3.46,1.95,5.23,5.23,5.23
			c2.13,0,4.88-0.71,6.83-2.22l3.46,10.02c-1.68,1.24-5.58,3.1-13.92,3.1C-384.13,252.95-390.34,248.61-390.34,236.47z"/>
		<path d="M-321.55,218.12v20.03c0,2.84,1.06,4.08,3.46,4.08h1.42v9.22c-2.13,1.33-4.43,1.68-6.65,1.68c-4.79,0-7.53-2.3-9.04-5.41
			h-0.35c-1.86,2.48-5.58,5.58-12.76,5.58c-9.75,0-14.8-6.65-14.8-13.83c0-11.52,10.37-16.84,26.15-16.04v-3.9
			c0-5.58-3.1-7.27-7.18-7.27c-4.79,0-7.36,2.75-8.6,5.67l-9.48-7c1.95-2.75,6.91-9.4,17.99-9.4
			C-328.64,201.54-321.55,205.98-321.55,218.12z M-334.14,232.48c-8.78-0.62-13.12,1.42-13.12,5.76c0,2.84,1.95,4.88,5.41,4.88
			c3.28,0,6.2-1.51,7.71-3.55V232.48z"/>
		<path d="M-270.5,250.3c0,13.65-9.57,20.39-22.96,20.39c-12.32,0-17.28-3.46-20.12-6.83l7.53-9.84c2.48,3.46,7.36,5.85,12.59,5.85
			c6.91,0,9.84-2.57,9.84-9.66v-2.57h-0.35c-1.86,1.68-5.32,2.84-9.84,2.84c-10.37,0-19.68-5.14-19.68-23.13
			c0-14.09,7.98-25.53,24.38-25.53c8.77,0,14.18,1.06,18.61,3.01V250.3z M-289.2,212.36c-7,0-10.99,4.88-10.99,14.45
			c0,10.28,3.55,12.85,9.48,12.85c2.92,0,5.32-0.89,7-2.57v-23.84C-285.57,212.62-287.07,212.36-289.2,212.36z"/>
		<path d="M-220.69,247.9c-3.9,3.19-8.78,5.58-18.35,5.58c-15.78,0-23.84-8.86-23.84-26.15c0-16.22,9.04-25.88,23.49-25.88
			c12.76,0,20.12,8.07,20.12,20.3c0,2.57-0.09,5.05-0.62,8.95h-29.87c0.18,7.89,3.72,12.23,12.23,12.23c5.41,0,9.13-2.57,10.99-4.52
			L-220.69,247.9z M-249.49,221.84h17.64v-1.33c0-5.85-2.48-8.95-7.89-8.95C-245.77,211.56-249.32,215.99-249.49,221.84z"/>
		<path d="M-169.1,252.51h-13.38v-31.82c0-5.14-2.39-8.15-6.91-8.15c-3.9,0-7.09,2.3-8.6,5.94v34.04h-13.38v-50.08h10.46l2.66,4.7
			h0.35c3.01-3.63,8.24-5.94,13.47-5.94c9.75,0,15.33,5.41,15.33,16.66V252.51z"/>
		<path d="M-160.95,217.06c0-8.16,7-15.51,18.61-15.51c9.04,0,14.8,3.19,18.08,7l-8.6,8.42c-1.77-2.04-5.23-4.7-9.84-4.7
			c-3.01,0-4.96,1.6-4.96,3.9c0,7.53,23.58,4.88,23.58,21.63c0,6.65-5.23,15.6-19.77,15.6c-10.99,0-17.64-4.61-20.39-7.53l7.98-9.22
			c2.22,2.57,7.09,6.21,13.12,6.21c4.17,0,5.76-1.95,5.76-4.25C-137.37,231.33-160.95,233.72-160.95,217.06z"/>
	</g>
</g>
</svg>
