<?xml version="1.0" encoding="utf-8"?>
<!-- Generator: Adobe Illustrator 25.3.1, SVG Export Plug-In . SVG Version: 6.00 Build 0)  -->
<svg version="1.1" id="Camada_1" xmlns="http://www.w3.org/2000/svg" xmlns:xlink="http://www.w3.org/1999/xlink" x="0px" y="0px"
	 viewBox="0 0 841.89 415.12" style="enable-background:new 0 0 841.89 415.12;" xml:space="preserve">
<g>
	<g>
		<path class="st1" d="M383.66,152.1l10.43,32.2h-3.86l-2.99-9.37h-12.95l-2.99,9.37h-3.77l10.43-32.2H383.66z M375.35,171.67h10.84
			l-3.44-10.84c-0.23-0.92-1.75-5.6-1.88-6.2h-0.18c-0.09,0.55-1.61,5.24-1.84,6.11L375.35,171.67z"/>
		<path class="st1" d="M401.34,155.36h-8.59v-3.26h20.81v3.26h-8.54v28.94h-3.67V155.36z"/>
		<path class="st1" d="M422.1,152.1v28.94h13.83v3.26h-17.5v-32.2H422.1z"/>
		<path class="st1" d="M453.15,152.1l10.43,32.2h-3.86l-2.99-9.37h-12.95l-2.99,9.37h-3.77l10.43-32.2H453.15z M444.84,171.67h10.84
			l-3.44-10.84c-0.23-0.92-1.75-5.6-1.88-6.2h-0.18c-0.09,0.55-1.61,5.24-1.84,6.11L444.84,171.67z"/>
		<path class="st1" d="M482.45,176.08c0-7.3-15.34-5.65-15.34-15.8c0-4.87,4.18-8.63,9.97-8.63c3.63,0,6.48,1.19,8.31,2.71
			l-2.25,2.85c-1.61-1.29-3.58-2.2-6.29-2.2c-3.77,0-6.02,2.11-6.02,5.05c0,7.44,15.34,5.88,15.34,15.8c0,4.87-3.86,8.91-10.75,8.91
			c-4.87,0-8.22-1.75-10.06-3.4l2.16-2.94c1.79,1.47,4.36,3.03,8.22,3.03C480.11,181.45,482.45,179.06,482.45,176.08z"/>
		<path class="st1" d="M505.97,152.1h8.45c9.69,0,14.05,5.01,14.05,15.8c0,10.47-4.23,16.4-14.1,16.4h-8.41V152.1z M509.64,181.04
			h4.69c7.07,0,10.38-3.49,10.38-12.72c0-9.6-3.77-12.95-10.61-12.95h-4.46V181.04z"/>
		<path class="st1" d="M546.84,152.1l10.43,32.2h-3.86l-2.99-9.37h-12.95l-2.99,9.37h-3.77l10.43-32.2H546.84z M538.53,171.67h10.84
			l-3.44-10.84c-0.23-0.92-1.75-5.6-1.88-6.2h-0.18c-0.09,0.55-1.61,5.24-1.84,6.11L538.53,171.67z"/>
		<path class="st1" d="M576.14,176.08c0-7.3-15.34-5.65-15.34-15.8c0-4.87,4.18-8.63,9.97-8.63c3.63,0,6.48,1.19,8.31,2.71
			l-2.25,2.85c-1.61-1.29-3.58-2.2-6.29-2.2c-3.77,0-6.02,2.11-6.02,5.05c0,7.44,15.34,5.88,15.34,15.8c0,4.87-3.86,8.91-10.75,8.91
			c-4.87,0-8.22-1.75-10.06-3.4l2.16-2.94c1.79,1.47,4.36,3.03,8.22,3.03C573.8,181.45,576.14,179.06,576.14,176.08z"/>
	</g>
	<g>
		<path class="st0" d="M387.32,252.78c-2.93,0-5.32-0.27-7.71-0.8v17.73h-13.3v-67.28h9.84l2.84,4.25h0.35
			c1.86-2.22,5.67-5.14,11.97-5.14c10.99,0,18.53,8.24,18.53,23.84C409.83,243.82,399.37,252.78,387.32,252.78z M385.72,241.96
			c6.47,0,10.46-3.72,10.46-15.42c0-9.93-4.17-14.18-9.4-14.18c-3.01,0-5.76,1.42-7.36,3.81v24.29
			C381.38,241.61,384.39,241.96,385.72,241.96z"/>
		<path class="st0" d="M453.44,218.12v20.03c0,2.84,1.06,4.08,3.46,4.08h1.42v9.22c-2.13,1.33-4.43,1.68-6.65,1.68
			c-4.79,0-7.53-2.3-9.04-5.41h-0.35c-1.86,2.48-5.58,5.58-12.76,5.58c-9.75,0-14.8-6.65-14.8-13.83
			c0-11.52,10.37-16.84,26.15-16.04v-3.9c0-5.58-3.1-7.27-7.18-7.27c-4.79,0-7.36,2.75-8.6,5.67l-9.48-7
			c1.95-2.75,6.91-9.4,17.99-9.4C446.35,201.54,453.44,205.98,453.44,218.12z M440.85,232.48c-8.78-0.62-13.12,1.42-13.12,5.76
			c0,2.84,1.95,4.88,5.41,4.88c3.28,0,6.2-1.51,7.71-3.55V232.48z"/>
		<path class="st0" d="M462.21,217.06c0-8.16,7-15.51,18.61-15.51c9.04,0,14.8,3.19,18.08,7l-8.6,8.42c-1.77-2.04-5.23-4.7-9.84-4.7
			c-3.01,0-4.96,1.6-4.96,3.9c0,7.53,23.58,4.88,23.58,21.63c0,6.65-5.23,15.6-19.77,15.6c-10.99,0-17.64-4.61-20.39-7.53l7.98-9.22
			c2.22,2.57,7.09,6.21,13.12,6.21c4.17,0,5.76-1.95,5.76-4.25C485.79,231.33,462.21,233.72,462.21,217.06z"/>
		<path class="st0" d="M507.41,236.47v-23.84h-6.38v-8.33l6.47-2.66l4.61-11.79h8.51v12.59h12.5v10.19h-12.5v24.2
			c0,3.46,1.95,5.23,5.23,5.23c2.13,0,4.88-0.71,6.83-2.22l3.46,10.02c-1.68,1.24-5.58,3.1-13.92,3.1
			C513.62,252.95,507.41,248.61,507.41,236.47z"/>
		<path class="st0" d="M576.19,218.12v20.03c0,2.84,1.06,4.08,3.46,4.08h1.42v9.22c-2.13,1.33-4.43,1.68-6.65,1.68
			c-4.79,0-7.53-2.3-9.04-5.41h-0.35c-1.86,2.48-5.58,5.58-12.76,5.58c-9.75,0-14.8-6.65-14.8-13.83
			c0-11.52,10.37-16.84,26.15-16.04v-3.9c0-5.58-3.1-7.27-7.18-7.27c-4.79,0-7.36,2.75-8.6,5.67l-9.48-7
			c1.95-2.75,6.91-9.4,17.99-9.4C569.1,201.54,576.19,205.98,576.19,218.12z M563.61,232.48c-8.78-0.62-13.12,1.42-13.12,5.76
			c0,2.84,1.95,4.88,5.41,4.88c3.28,0,6.2-1.51,7.71-3.55V232.48z"/>
		<path class="st0" d="M627.25,250.3c0,13.65-9.57,20.39-22.96,20.39c-12.32,0-17.28-3.46-20.12-6.83l7.53-9.84
			c2.48,3.46,7.36,5.85,12.59,5.85c6.91,0,9.84-2.57,9.84-9.66v-2.57h-0.35c-1.86,1.68-5.32,2.84-9.84,2.84
			c-10.37,0-19.68-5.14-19.68-23.13c0-14.09,7.98-25.53,24.38-25.53c8.77,0,14.18,1.06,18.61,3.01V250.3z M608.55,212.36
			c-7,0-10.99,4.88-10.99,14.45c0,10.28,3.55,12.85,9.48,12.85c2.92,0,5.32-0.89,7-2.57v-23.84
			C612.18,212.62,610.67,212.36,608.55,212.36z"/>
		<path class="st0" d="M677.06,247.9c-3.9,3.19-8.78,5.58-18.35,5.58c-15.78,0-23.84-8.86-23.84-26.15
			c0-16.22,9.04-25.88,23.49-25.88c12.76,0,20.12,8.07,20.12,20.3c0,2.57-0.09,5.05-0.62,8.95h-29.87
			c0.18,7.89,3.72,12.23,12.23,12.23c5.41,0,9.13-2.57,10.99-4.52L677.06,247.9z M648.25,221.84h17.64v-1.33
			c0-5.85-2.48-8.95-7.89-8.95C651.98,211.56,648.43,215.99,648.25,221.84z"/>
		<path class="st0" d="M728.64,252.51h-13.38v-31.82c0-5.14-2.39-8.15-6.91-8.15c-3.9,0-7.09,2.3-8.6,5.94v34.04h-13.38v-50.08
			h10.46l2.66,4.7h0.35c3.01-3.63,8.24-5.94,13.47-5.94c9.75,0,15.33,5.41,15.33,16.66V252.51z"/>
		<path class="st0" d="M736.8,217.06c0-8.16,7-15.51,18.61-15.51c9.04,0,14.8,3.19,18.08,7l-8.6,8.42c-1.77-2.04-5.23-4.7-9.84-4.7
			c-3.01,0-4.96,1.6-4.96,3.9c0,7.53,23.58,4.88,23.58,21.63c0,6.65-5.23,15.6-19.77,15.6c-10.99,0-17.64-4.61-20.39-7.53l7.98-9.22
			c2.22,2.57,7.09,6.21,13.12,6.21c4.17,0,5.76-1.95,5.76-4.25C760.38,231.33,736.8,233.72,736.8,217.06z"/>
	</g>
	<g>
		<g id="Layer_x5F_1_1_">
			<g id="_642949840_1_">
				<g>
					<path class="st2" d="M323.39,115.96L224.1,58.63c-10.33-5.95-22.18-5.95-32.5,0l-99.34,57.33
						c-10.33,5.99-16.27,16.23-16.27,28.16v18.14c22.6-1.52,46.85,0.01,72.01,4.52c-0.14-1.71-0.24-3.43-0.24-5.17
						c0-33.31,27.01-60.32,60.32-60.32c33.31,0,60.32,27.01,60.32,60.32c0,2.46-0.16,4.88-0.45,7.26c0.11,0,0.21-0.01,0.32-0.01
						c22.48-0.61,45.74,0.39,69.3,2.99l2.08,0.22v-27.95C339.66,132.19,333.76,121.95,323.39,115.96z"/>
					<path class="st1" d="M76.5,248.45v-24.13c1.65-0.26,3.3-0.48,4.99-0.69c81.63-10.85,160.87-4.34,226.66,15.41
						c-39.62,4.86-76.47,15.23-108.67,29.86C162.34,256.35,120.64,249.01,76.5,248.45z"/>
					<path class="st1" d="M125.15,317.84l-32.42-18.7C82.4,293.15,76.5,282.9,76.5,270.97v-19.7c40.19,2.43,78.03,10.5,111.79,23
						C164.03,286.46,142.73,301.17,125.15,317.84z"/>
					<path class="st0" d="M340.14,239.85v31.12c0,11.93-5.9,22.18-16.23,28.16l-99.34,57.33c-10.33,5.99-22.18,5.99-32.5,0
						l-52.64-30.38C183.95,280.21,256.25,247.8,340.14,239.85z"/>
					<path class="st4" d="M340.14,175.02v61.32h-0.04c-65.27-21.05-144.77-28.82-227.01-18.96
						C172.02,185.48,252.74,168.99,340.14,175.02z"/>
					<path class="st3" d="M169.11,182.92c-34.98,8.9-66.4,21.92-92.61,38.28v-41.66C104.75,175.5,136.17,176.67,169.11,182.92z"/>
				</g>
			</g>
		</g>
		<g>
			<path class="st0" d="M207.82,126.7h6.56c1.48,0,2.86-0.42,4-1.17c1.15-0.75,2.08-1.84,2.65-3.16c0.29-0.68,0.37-1.38,0.24-2.03
				c-0.13-0.66-0.46-1.28-0.98-1.8l-1.01-1.01c-0.74-0.74-0.74-1.94,0-2.68c0.74-0.74,1.94-0.74,2.68,0l1.01,1.01
				c1.06,1.06,1.75,2.37,2.01,3.77c0.27,1.39,0.12,2.86-0.48,4.24c-0.87,2.01-2.29,3.67-4.07,4.83c-1.75,1.14-3.83,1.79-6.06,1.79
				h-6.56h-6.56c-2.22,0-4.31-0.65-6.06-1.79c-1.78-1.16-3.2-2.82-4.07-4.83c-0.6-1.38-0.75-2.85-0.48-4.24
				c0.27-1.4,0.95-2.7,2.01-3.77l1.01-1.01c0.74-0.74,1.94-0.74,2.68,0c0.74,0.74,0.74,1.94,0,2.68l-1.01,1.01
				c-0.52,0.52-0.85,1.14-0.98,1.8c-0.13,0.65-0.05,1.36,0.24,2.03c0.57,1.32,1.49,2.41,2.65,3.16c1.14,0.75,2.52,1.17,4,1.17
				H207.82z"/>
			<path class="st0" d="M207.82,172.27h-3.16c-2.87,0-5.52-1.02-7.56-2.76c-2.05-1.73-3.49-4.18-3.95-7.02l-3.41-20.78h-4.44
				c-2.27,0-4.39-0.5-6.29-1.46c-1.9-0.96-3.56-2.38-4.9-4.21l-3.11-4.24c-0.28-0.33-0.45-0.76-0.45-1.22
				c0-1.04,0.85-1.89,1.89-1.89h9.61c2.72,0,5.22,0.97,7.16,2.61c1.94,1.64,3.3,3.96,3.74,6.65l0.02,0.1c1.66,0.26,3.19,0.96,4.44,2
				c1.68,1.39,2.88,3.36,3.27,5.65c0.17,1.03-0.52,2-1.55,2.18c-1.03,0.17-2-0.52-2.18-1.55c-0.23-1.36-0.94-2.53-1.93-3.35
				c-0.41-0.34-0.88-0.62-1.38-0.83l3.24,19.76c0.26,1.6,0.98,3.01,2,4.11c0.8-1.15,1.81-2.13,2.97-2.89
				c1.75-1.15,3.82-1.79,5.98-1.79c2.16,0,4.23,0.65,5.98,1.79c1.15,0.76,2.16,1.74,2.97,2.89c1.02-1.1,1.74-2.51,2-4.11l3.24-19.76
				c-0.5,0.21-0.96,0.49-1.38,0.83c-1,0.82-1.71,1.99-1.93,3.35c-0.17,1.03-1.15,1.72-2.17,1.55c-1.03-0.17-1.73-1.15-1.55-2.18
				c0.38-2.28,1.58-4.26,3.27-5.65c1.26-1.03,2.78-1.74,4.44-2l0.02-0.1c0.44-2.69,1.8-5,3.74-6.65c1.93-1.64,4.44-2.61,7.15-2.61
				h9.61c1.05,0,1.89,0.85,1.89,1.89c0,0.47-0.17,0.89-0.45,1.22l-3.11,4.24c-1.34,1.83-3,3.25-4.9,4.21
				c-1.9,0.96-4.02,1.46-6.29,1.46h-4.44l-3.41,20.78c-0.47,2.84-1.91,5.29-3.95,7.02c-2.05,1.74-4.69,2.76-7.56,2.76H207.82z"/>
		</g>
	</g>
</g>

<style type="text/css">
	.st0{fill:#1d3430;}
	.st1{fill:#7f953e;}
	.st2{fill:#ddb520;}
	.st3{fill:#ebdc6e;}
	.st4{fill:#b7c941;}
</style>
</svg>
